<svg width="50" height="50" viewBox="0 0 50 50" fill="none" xmlns="http://www.w3.org/2000/svg">
<g clip-path="url(#clip0_3_185)">
<rect width="50" height="50" rx="25" fill="#8D8D8D"/>
<path d="M25 -0.833313C10.9958 -0.833313 -0.833313 10.9958 -0.833313 25C-0.833313 39.0043 10.9958 50.8334 25 50.8334C39.0043 50.8334 50.8334 39.0043 50.8334 25C50.8334 10.9958 39.0043 -0.833313 25 -0.833313ZM25 12.0834C29.4614 12.0834 32.75 15.3694 32.75 19.8334C32.75 24.2974 29.4614 27.5834 25 27.5834C20.5412 27.5834 17.25 24.2974 17.25 19.8334C17.25 15.3694 20.5412 12.0834 25 12.0834ZM11.8095 37.3277C14.1268 33.9177 17.9914 31.6444 22.4167 31.6444H27.5834C32.0112 31.6444 35.8733 33.9177 38.1905 37.3277C34.889 40.8617 30.2054 43.0834 25 43.0834C19.7946 43.0834 15.111 40.8617 11.8095 37.3277Z" fill="#D8D8D8"/>
</g>
<defs>
<clipPath id="clip0_3_185">
<rect width="50" height="50" rx="25" fill="white"/>
</clipPath>
</defs>
</svg>
